<?xml version="1.0" encoding="UTF-8"?>
<!DOCTYPE svg  PUBLIC '-//W3C//DTD SVG 1.1//EN'  'http://www.w3.org/Graphics/SVG/1.1/DTD/svg11.dtd'>
<svg clip-rule="evenodd" fill-rule="evenodd" stroke-linecap="round" stroke-linejoin="round" version="1.1" viewBox="0 0 800 600" xml:space="preserve" xmlns="http://www.w3.org/2000/svg"><path d="m533.08 301.36v-118.3c-0.011-10.542-5.658-20.311-14.787-25.581l-103.51-59.148c-9.139-5.277-20.435-5.277-29.574-0l-103.51 59.148c-9.129 5.27-14.776 15.039-14.787 25.581v118.3c0.011 10.542 5.658 20.31 14.787 25.581l103.51 59.148c9.139 5.277 20.435 5.277 29.574 0l103.51-59.148c9.129-5.271 14.776-15.039 14.787-25.581z" fill="none" stroke="#000" stroke-width="29.57px"/><path d="m333.46 127.02 66.541 38.447 66.541-38.447" fill="none" stroke="#000" stroke-linecap="butt" stroke-width="29.57px"/><path d="m333.46 357.4v-76.745l-66.542-38.446" fill="none" stroke="#000" stroke-linecap="butt" stroke-width="29.57px"/><path d="m270.91 167.69 129.09 74.674 129.09-74.674" fill="none" stroke="#000" stroke-linecap="butt" stroke-width="29.57px"/><path d="m400 391.27v-149.05" fill="none" stroke="#000" stroke-linecap="butt" stroke-width="29.57px"/><path d="m454.32 227.28 24.84-14.192 39.277 99.232-24.286 13.876-3.416-8.993-35.124 20.067-3.415 12.897-37.154 21.227 39.278-144.11zm27.721 68.074-10.466-31.116-9.877 43.194 20.343-12.078z" fill-rule="nonzero"/><g fill-rule="nonzero"><path d="m258.2 452.25c0.29-0.765 1.023-1.271 1.842-1.271h10.389c0.622 0 1.179 0.385 1.4 0.966 2.353 6.204 15.351 40.471 18.931 49.911 0.207 0.546 0.133 1.159-0.199 1.64s-0.879 0.768-1.463 0.768h-13.548c-0.392-0-0.743-0.245-0.878-0.613-0.474-1.293-1.532-4.181-1.532-4.181h-16.138s-0.917 2.503-1.426 3.891c-0.199 0.542-0.715 0.903-1.292 0.903h-14.123c-0.384-0-0.743-0.189-0.961-0.505s-0.267-0.719-0.131-1.078c3.008-7.931 16.41-43.262 19.129-50.431zm11.338 35.477-4.465-14.809-4.443 14.809h8.908z"/><path d="m310.57 450.98c-0.457 0-0.896 0.182-1.22 0.505-0.323 0.324-0.505 0.763-0.505 1.22v48.602c0 0.784 0.312 1.537 0.866 2.091 0.555 0.555 1.307 0.867 2.092 0.867h32.278c1.42-0 2.572-1.152 2.572-2.573v-9.13c-0-1.258-1.02-2.278-2.278-2.278h-17.795v-37.154c-0-1.187-0.963-2.15-2.15-2.15h-13.86z"/><path d="m358.86 477.66c0-3.834 0.733-7.456 2.197-10.864 1.465-3.409 3.462-6.378 5.992-8.908 2.529-2.53 5.499-4.527 8.907-5.991 3.409-1.465 7.03-2.197 10.865-2.197 3.834-0 7.456 0.732 10.864 2.197 3.409 1.464 6.378 3.461 8.908 5.991 2.529 2.53 4.527 5.499 5.991 8.908 1.465 3.408 2.197 7.03 2.197 10.864 0 3.835-0.732 7.456-2.197 10.865-1.464 3.408-3.462 6.377-5.991 8.907-2.53 2.53-5.499 4.527-8.908 5.992-3.408 1.464-7.03 2.197-10.864 2.197-3.835-0-7.456-0.733-10.865-2.197-3.408-1.465-6.378-3.462-8.907-5.992-2.53-2.53-4.527-5.499-5.992-8.907-1.464-3.409-2.197-7.03-2.197-10.865zm16.777 0c-0 1.545 0.292 2.996 0.878 4.354s1.385 2.543 2.397 3.555 2.197 1.811 3.555 2.397c1.358 0.585 2.809 0.878 4.354 0.878 1.544 0 2.995-0.293 4.354-0.878 1.358-0.586 2.543-1.385 3.554-2.397 1.012-1.012 1.811-2.197 2.397-3.555s0.879-2.809 0.879-4.354c-0-1.544-0.293-2.996-0.879-4.354s-1.385-2.543-2.397-3.555c-1.011-1.011-2.196-1.81-3.554-2.396-1.359-0.586-2.81-0.879-4.354-0.879-1.545 0-2.996 0.293-4.354 0.879s-2.543 1.385-3.555 2.396c-1.012 1.012-1.811 2.197-2.397 3.555s-0.878 2.81-0.878 4.354z"/><path d="m469.98 467.86c-0.465 0.662-1.37 0.839-2.052 0.402-0.708-0.455-1.519-0.82-2.425-1.105-1.438-0.453-2.849-0.679-4.234-0.679-1.544 0-2.956 0.28-4.234 0.839s-2.383 1.331-3.315 2.317c-0.932 0.985-1.664 2.17-2.197 3.555-0.533 1.384-0.799 2.875-0.799 4.473s0.293 3.089 0.879 4.474 1.385 2.57 2.397 3.555c1.011 0.985 2.196 1.757 3.554 2.317 1.359 0.559 2.81 0.838 4.354 0.838 1.811 0 3.462-0.386 4.953-1.158 1.158-0.599 2.187-1.367 3.088-2.303 0.138-0.147 0.175-0.361 0.096-0.546-0.08-0.184-0.262-0.304-0.463-0.304-0.675-3e-3 -1.542-3e-3 -2.264-3e-3 -0.376 0-0.736-0.149-1.001-0.414s-0.414-0.625-0.414-1v-8.566c-0-0.319 0.127-0.625 0.352-0.851 0.226-0.226 0.532-0.353 0.852-0.353h18.09c0.683 0 1.237 0.554 1.237 1.237v15.942c-0 0.371-0.098 0.735-0.285 1.055-1.166 1.987-2.535 3.805-4.109 5.453-1.704 1.784-3.608 3.315-5.712 4.593s-4.381 2.264-6.83 2.956c-2.45 0.692-4.98 1.039-7.59 1.039-3.834-0-7.456-0.719-10.864-2.157-3.409-1.438-6.378-3.409-8.908-5.912-2.529-2.503-4.527-5.459-5.991-8.867-1.465-3.409-2.197-7.084-2.197-11.025-0-3.834 0.692-7.456 2.077-10.864 1.385-3.409 3.289-6.378 5.712-8.908s5.299-4.527 8.628-5.991c3.328-1.465 6.91-2.197 10.744-2.197 2.983-0 5.566 0.293 7.749 0.879 2.184 0.585 4.021 1.251 5.513 1.997 1.18 0.572 2.229 1.181 3.145 1.825 0.707 0.512 0.872 1.497 0.369 2.212-1.83 2.611-6.063 8.628-7.905 11.245z"/><path d="m505.61 477.66c0-3.834 0.733-7.456 2.197-10.864 1.465-3.409 3.462-6.378 5.992-8.908s5.499-4.527 8.907-5.991c3.409-1.465 7.03-2.197 10.865-2.197 3.834-0 7.456 0.732 10.864 2.197 3.409 1.464 6.378 3.461 8.908 5.991s4.527 5.499 5.991 8.908c1.465 3.408 2.197 7.03 2.197 10.864 0 3.835-0.732 7.456-2.197 10.865-1.464 3.408-3.461 6.377-5.991 8.907s-5.499 4.527-8.908 5.992c-3.408 1.464-7.03 2.197-10.864 2.197-3.835-0-7.456-0.733-10.865-2.197-3.408-1.465-6.377-3.462-8.907-5.992s-4.527-5.499-5.992-8.907c-1.464-3.409-2.197-7.03-2.197-10.865zm16.777 0c-0 1.545 0.293 2.996 0.878 4.354 0.586 1.358 1.385 2.543 2.397 3.555s2.197 1.811 3.555 2.397c1.358 0.585 2.809 0.878 4.354 0.878 1.544 0 2.996-0.293 4.354-0.878 1.358-0.586 2.543-1.385 3.555-2.397s1.81-2.197 2.396-3.555 0.879-2.809 0.879-4.354c0-1.544-0.293-2.996-0.879-4.354s-1.384-2.543-2.396-3.555c-1.012-1.011-2.197-1.81-3.555-2.396s-2.81-0.879-4.354-0.879c-1.545 0-2.996 0.293-4.354 0.879s-2.543 1.385-3.555 2.396c-1.012 1.012-1.811 2.197-2.397 3.555-0.585 1.358-0.878 2.81-0.878 4.354z"/></g></svg>
